# xmcd
#
# Track frame offsets:
#	150
#	10699
#	24140
#	34403
#	44173
#	57183
#	69146
#	80126
#	91040
#	101151
#	111003
#	120250
#	130214
#
# Disc length: 1921 seconds
# Revision: 1
# Processed by: cddbd v1.5.2PL0 Copyright (c) Steve Scherf et al.
# Submitted via: dBpowerAMP V12.0
#
DISCID=9e077f0d
DTITLE=TheSadies,Toronto,Ontario,Canada - Favourite Colours
DYEAR=2004
DGENRE=Rock
TTITLE0=Northumberland West
TTITLE1=Translucent Sparrow
TTITLE2=1000 Cities Falling (Part 1)
TTITLE3=Song of the Chief Musician (Part 2)
TTITLE4=The Curdled Journey
TTITLE5=Why Be So Curious? (Part 3)
TTITLE6=The Iceberg
TTITLE7=A Good Flying Day
TTITLE8=Only You and Your Eyes
TTITLE9=As Much as Such
TTITLE10=A Burning Snowman
TTITLE11=Coming Back
TTITLE12=Why Would Anybody Live Here?
EXTD=
EXTT0=
EXTT1=
EXTT2=
EXTT3=
EXTT4=
EXTT5=
EXTT6=
EXTT7=
EXTT8=
EXTT9=
EXTT10=
EXTT11=
EXTT12=
PLAYORDER=
